# Rhino

mtllib woodenFacade.mtl
usemtl diffuse_0
v -24.549699783325195 19.833330154418945 -9.5914907455444336
v -24.549697875976563 12.333341598510742 -9.5914926528930664
v -24.550289154052734 19.833322525024414 24.549526214599609
v -24.550285339355469 12.333333015441895 24.549524307250977
v -24.550289154052734 19.833322525024414 24.549526214599609
v -24.550285339355469 12.333333015441895 24.549524307250977
v 1.0915189981460571 19.833333969116211 24.549526214599609
v 1.0915219783782959 12.333343505859375 24.549524307250977
vt 0 0
vt 0 1
vt 0.57108402252197266 0
vt 0.57108402252197266 1
vt 0.57108402252197266 0
vt 0.57108402252197266 1
vt 1 0
vt 1 1
vn 1 4.0995624317474721E-07 1.7225820556632243E-05
vn 1 4.0995624317474721E-07 1.7225820556632243E-05
vn 1 4.0995624317474721E-07 1.7225820556632243E-05
vn 1 4.0995624317474721E-07 1.7225820556632243E-05
vn 3.8289002191049804E-08 2.4144750909727009E-07 -1
vn 3.8289002191049804E-08 2.4144750909727009E-07 -1
vn 3.8289002191049804E-08 2.4144750909727009E-07 -1
vn 3.8289002191049804E-08 2.4144750909727009E-07 -1
f 1/1/1 3/3/3 4/4/4 2/2/2
f 5/5/5 7/7/7 8/8/8 6/6/6
usemtl diffuse_0
v 10.091519355773926 19.833333969116211 24.549526214599609
v 10.091498374938965 19.833333969116211 7.2290191650390625
v 10.091485023498535 12.333333015441895 -10.091482162475586
v 10.091477394104004 19.833333969116211 -10.091488838195801
v 10.091506958007813 12.333333015441895 24.549528121948242
v 10.091499328613281 12.333333015441895 13.002524375915527
v 10.091492652893066 12.333333015441895 1.4555208683013916
vt 15.089241027832031 4.0064501762390137
vt 20.418628692626953 4.0064501762390137
vt 25.748012542724609 1.6987574100494385
vt 25.748014450073242 4.0064501762390137
vt 15.089241027832031 1.6987574100494385
vt 18.64216423034668 1.6987574100494385
vt 22.195089340209961 1.6987574100494385
vn 1 0 -1.1972930451520369E-06
vn 1 0 -1.1972930451520369E-06
vn 1 0 -1.1972930451520369E-06
vn 1 0 -1.1972930451520369E-06
vn 1 0 -1.1972930451520369E-06
vn 1 0 -1.1972930451520369E-06
vn 1 0 -1.1972930451520369E-06
f 9/9/9 13/13/13 14/14/14 15/15/15 11/11/11 12/12/12 10/10/10
usemtl diffuse_0
v 10.091485023498535 12.333333015441895 -10.091482162475586
v 10.091477394104004 19.833333969116211 -10.091488838195801
v -2.7290139198303223 19.833333969116211 -10.091489791870117
v -15.549505233764648 19.833333969116211 -10.091486930847168
v -15.549505233764648 12.333333015441895 -10.091494560241699
v 1.5444885492324829 12.333333015441895 -10.091485977172852
v -7.0025081634521484 12.333333015441895 -10.091490745544434
vt -20.996088027954102 1.6987574100494385
vt -20.996086120605469 4.0064501762390137
vt -17.051319122314453 4.0064501762390137
vt -13.106553077697754 4.0064501762390137
vt -13.106553077697754 1.6987574100494385
vt -18.366243362426758 1.6987574100494385
vt -15.736398696899414 1.6987574100494385
vn 4.4031899903984595E-08 0 -1
vn 4.4031899903984595E-08 0 -1
vn 4.4031899903984595E-08 0 -1
vn 4.4031899903984595E-08 0 -1
vn 4.4031899903984595E-08 0 -1
vn 4.4031899903984595E-08 0 -1
vn 4.4031899903984595E-08 0 -1
f 17/17/17 16/16/16 21/21/21 22/22/22 20/20/20 19/19/19 18/18/18
